<?xml version="1.0" encoding="UTF-8"?>
<svg xmlns="http://www.w3.org/2000/svg" xmlns:xlink="http://www.w3.org/1999/xlink" width="854" height="480" viewBox="0 0 854 480">
<defs>
<g>
<g id="glyph-0-0">
<path d="M 7 -2.996094 C 7 -2.546875 6.917969 -2.125 6.753906 -1.730469 C 6.589844 -1.335938 6.375 -1 6.101562 -0.722656 C 5.785156 -0.40625 5.433594 -0.171875 5.046875 -0.0195312 C 4.664062 0.132812 4.265625 0.207031 3.847656 0.207031 C 3.367188 0.207031 2.929688 0.121094 2.539062 -0.0585938 C 2.148438 -0.234375 1.816406 -0.488281 1.542969 -0.8125 C 1.265625 -1.144531 1.050781 -1.546875 0.898438 -2.023438 C 0.746094 -2.5 0.671875 -3.035156 0.671875 -3.628906 C 0.671875 -5.179688 1.132812 -6.484375 2.054688 -7.546875 C 2.976562 -8.609375 4.210938 -9.246094 5.761719 -9.460938 L 5.878906 -8.875 L 5.292969 -8.769531 C 4.351562 -8.464844 3.621094 -7.992188 3.109375 -7.351562 C 2.59375 -6.707031 2.261719 -5.929688 2.109375 -5.015625 C 2.484375 -5.339844 2.851562 -5.570312 3.214844 -5.703125 C 3.582031 -5.835938 3.964844 -5.90625 4.367188 -5.90625 C 5.09375 -5.90625 5.710938 -5.628906 6.226562 -5.074219 C 6.742188 -4.515625 7 -3.824219 7 -2.996094 M 5.585938 -2.824219 C 5.585938 -3.527344 5.425781 -4.09375 5.101562 -4.519531 C 4.777344 -4.945312 4.34375 -5.15625 3.800781 -5.15625 C 3.476562 -5.15625 3.171875 -5.09375 2.894531 -4.972656 C 2.613281 -4.851562 2.34375 -4.648438 2.082031 -4.363281 C 2.078125 -4.308594 2.074219 -4.1875 2.0625 -4 C 2.054688 -3.8125 2.050781 -3.664062 2.050781 -3.554688 C 2.050781 -2.539062 2.21875 -1.742188 2.546875 -1.167969 C 2.878906 -0.59375 3.316406 -0.304688 3.859375 -0.304688 C 4.378906 -0.304688 4.792969 -0.53125 5.109375 -0.980469 C 5.425781 -1.429688 5.585938 -2.042969 5.585938 -2.824219 Z "/>
</g>
<g id="glyph-0-1">
</g>
<g id="glyph-0-2">
<path d="M 5.742188 -7.15625 C 5.742188 -6.996094 5.695312 -6.878906 5.605469 -6.804688 C 5.515625 -6.730469 5.398438 -6.691406 5.253906 -6.691406 C 5.160156 -6.691406 4.929688 -6.738281 4.566406 -6.832031 C 4.203125 -6.925781 3.796875 -7 3.347656 -7.050781 C 3.542969 -6.78125 3.722656 -6.558594 3.894531 -6.375 C 4.0625 -6.195312 4.203125 -6.046875 4.316406 -5.925781 C 4.433594 -5.796875 4.523438 -5.6875 4.589844 -5.59375 C 4.65625 -5.496094 4.6875 -5.394531 4.6875 -5.285156 C 4.6875 -5.167969 4.636719 -5.066406 4.53125 -4.980469 C 4.425781 -4.894531 4.316406 -4.851562 4.199219 -4.851562 C 4.121094 -4.851562 4.046875 -4.875 3.976562 -4.917969 C 3.910156 -4.964844 3.851562 -5.027344 3.800781 -5.109375 C 3.734375 -5.238281 3.664062 -5.4375 3.597656 -5.714844 C 3.53125 -5.992188 3.382812 -6.402344 3.152344 -6.941406 C 2.941406 -6.421875 2.796875 -6.015625 2.714844 -5.710938 C 2.632812 -5.410156 2.5625 -5.210938 2.5 -5.109375 C 2.445312 -5.023438 2.386719 -4.957031 2.328125 -4.914062 C 2.269531 -4.871094 2.195312 -4.851562 2.101562 -4.851562 C 1.980469 -4.851562 1.871094 -4.890625 1.765625 -4.972656 C 1.664062 -5.054688 1.613281 -5.160156 1.613281 -5.285156 C 1.613281 -5.390625 1.644531 -5.488281 1.707031 -5.578125 C 1.765625 -5.671875 1.859375 -5.785156 1.984375 -5.925781 C 2.09375 -6.039062 2.238281 -6.191406 2.417969 -6.386719 C 2.597656 -6.582031 2.777344 -6.804688 2.957031 -7.050781 C 2.53125 -7.007812 2.132812 -6.9375 1.765625 -6.839844 C 1.402344 -6.742188 1.160156 -6.691406 1.046875 -6.691406 C 0.90625 -6.691406 0.789062 -6.726562 0.695312 -6.800781 C 0.605469 -6.871094 0.558594 -6.988281 0.558594 -7.15625 C 0.558594 -7.300781 0.605469 -7.417969 0.695312 -7.496094 C 0.789062 -7.578125 0.90625 -7.617188 1.046875 -7.617188 C 1.179688 -7.617188 1.40625 -7.570312 1.734375 -7.480469 C 2.0625 -7.390625 2.46875 -7.320312 2.957031 -7.273438 C 2.785156 -7.503906 2.609375 -7.71875 2.421875 -7.925781 C 2.234375 -8.132812 2.089844 -8.289062 1.984375 -8.398438 C 1.863281 -8.527344 1.773438 -8.640625 1.707031 -8.734375 C 1.644531 -8.828125 1.613281 -8.929688 1.613281 -9.035156 C 1.613281 -9.152344 1.667969 -9.253906 1.769531 -9.34375 C 1.875 -9.429688 1.984375 -9.472656 2.101562 -9.472656 C 2.179688 -9.472656 2.253906 -9.449219 2.320312 -9.40625 C 2.386719 -9.363281 2.449219 -9.300781 2.5 -9.210938 C 2.5625 -9.109375 2.640625 -8.875 2.742188 -8.511719 C 2.839844 -8.148438 2.976562 -7.773438 3.152344 -7.382812 C 3.347656 -7.824219 3.488281 -8.210938 3.578125 -8.546875 C 3.667969 -8.875 3.742188 -9.097656 3.800781 -9.210938 C 3.851562 -9.292969 3.90625 -9.359375 3.972656 -9.40625 C 4.042969 -9.449219 4.117188 -9.472656 4.199219 -9.472656 C 4.320312 -9.472656 4.433594 -9.429688 4.535156 -9.347656 C 4.636719 -9.265625 4.6875 -9.164062 4.6875 -9.035156 C 4.6875 -8.859375 4.566406 -8.648438 4.328125 -8.410156 C 4.085938 -8.171875 3.757812 -7.792969 3.347656 -7.273438 C 3.816406 -7.324219 4.222656 -7.394531 4.566406 -7.484375 C 4.914062 -7.574219 5.140625 -7.617188 5.253906 -7.617188 C 5.398438 -7.617188 5.515625 -7.578125 5.605469 -7.5 C 5.695312 -7.421875 5.742188 -7.308594 5.742188 -7.15625 Z "/>
</g>
<g id="glyph-0-3">
<path d="M 5.265625 0 L 0.878906 0 L 0.878906 -0.460938 C 1.007812 -0.472656 1.210938 -0.488281 1.488281 -0.515625 C 1.761719 -0.546875 1.953125 -0.574219 2.058594 -0.605469 C 2.191406 -0.648438 2.296875 -0.71875 2.367188 -0.816406 C 2.4375 -0.914062 2.472656 -1.0625 2.472656 -1.257812 L 2.472656 -5.828125 L 0.851562 -5.828125 L 0.851562 -6.375 L 1.210938 -6.375 C 1.679688 -6.375 2.101562 -6.460938 2.46875 -6.632812 C 2.839844 -6.808594 3.109375 -6.996094 3.269531 -7.195312 L 3.808594 -7.195312 C 3.796875 -6.910156 3.78125 -6.582031 3.769531 -6.203125 C 3.757812 -5.828125 3.75 -5.488281 3.75 -5.1875 L 3.75 -1.328125 C 3.75 -1.175781 3.785156 -1.039062 3.851562 -0.921875 C 3.917969 -0.800781 4.015625 -0.714844 4.140625 -0.65625 C 4.253906 -0.609375 4.4375 -0.566406 4.695312 -0.527344 C 4.949219 -0.488281 5.140625 -0.464844 5.265625 -0.460938 Z "/>
</g>
<g id="glyph-0-4">
<path d="M 7.570312 -4.445312 L 1.003906 -4.445312 L 1.003906 -5.261719 L 7.570312 -5.261719 L 7.570312 -4.445312 M 7.570312 -2.023438 L 1.003906 -2.023438 L 1.003906 -2.839844 L 7.570312 -2.839844 Z "/>
</g>
</g>
</defs>
<g fill="rgb(100%, 100%, 100%)" fill-opacity="1">
<use xlink:href="#glyph-0-0" x="30" y="32.226562"/>
<use xlink:href="#glyph-0-1" x="38" y="32.226562"/>
<use xlink:href="#glyph-0-2" x="41" y="32.226562"/>
<use xlink:href="#glyph-0-1" x="47" y="32.226562"/>
<use xlink:href="#glyph-0-3" x="50" y="32.226562"/>
<use xlink:href="#glyph-0-1" x="56" y="32.226562"/>
<use xlink:href="#glyph-0-4" x="59" y="32.226562"/>
<use xlink:href="#glyph-0-1" x="68" y="32.226562"/>
<use xlink:href="#glyph-0-0" x="71" y="32.226562"/>
</g>
</svg>
