<?xml version="1.0" encoding="UTF-8"?>
<svg xmlns="http://www.w3.org/2000/svg" xmlns:xlink="http://www.w3.org/1999/xlink" width="854" height="480" viewBox="0 0 854 480">
<defs>
<g>
<g id="glyph-0-0">
<path d="M 6.699219 -6.5625 L 2.0625 2.375 L 1.242188 2.375 L 5.605469 -5.890625 L 3.054688 -5.890625 C 2.675781 -5.890625 2.378906 -5.886719 2.167969 -5.878906 C 1.957031 -5.871094 1.761719 -5.828125 1.582031 -5.753906 C 1.449219 -5.699219 1.328125 -5.554688 1.21875 -5.320312 C 1.113281 -5.089844 1.03125 -4.792969 0.976562 -4.433594 L 0.578125 -4.433594 L 0.578125 -6.984375 L 6.699219 -6.984375 Z "/>
</g>
<g id="glyph-0-1">
</g>
<g id="glyph-0-2">
<path d="M 5.742188 -7.15625 C 5.742188 -6.996094 5.695312 -6.878906 5.605469 -6.804688 C 5.515625 -6.730469 5.398438 -6.691406 5.253906 -6.691406 C 5.160156 -6.691406 4.929688 -6.738281 4.566406 -6.832031 C 4.203125 -6.925781 3.796875 -7 3.347656 -7.050781 C 3.542969 -6.78125 3.722656 -6.558594 3.894531 -6.375 C 4.0625 -6.195312 4.203125 -6.046875 4.316406 -5.925781 C 4.433594 -5.796875 4.523438 -5.6875 4.589844 -5.59375 C 4.65625 -5.496094 4.6875 -5.394531 4.6875 -5.285156 C 4.6875 -5.167969 4.636719 -5.066406 4.53125 -4.980469 C 4.425781 -4.894531 4.316406 -4.851562 4.199219 -4.851562 C 4.121094 -4.851562 4.046875 -4.875 3.976562 -4.917969 C 3.910156 -4.964844 3.851562 -5.027344 3.800781 -5.109375 C 3.734375 -5.238281 3.664062 -5.4375 3.597656 -5.714844 C 3.53125 -5.992188 3.382812 -6.402344 3.152344 -6.941406 C 2.941406 -6.421875 2.796875 -6.015625 2.714844 -5.710938 C 2.632812 -5.410156 2.5625 -5.210938 2.5 -5.109375 C 2.445312 -5.023438 2.386719 -4.957031 2.328125 -4.914062 C 2.269531 -4.871094 2.195312 -4.851562 2.101562 -4.851562 C 1.980469 -4.851562 1.871094 -4.890625 1.765625 -4.972656 C 1.664062 -5.054688 1.613281 -5.160156 1.613281 -5.285156 C 1.613281 -5.390625 1.644531 -5.488281 1.707031 -5.578125 C 1.765625 -5.671875 1.859375 -5.785156 1.984375 -5.925781 C 2.09375 -6.039062 2.238281 -6.191406 2.417969 -6.386719 C 2.597656 -6.582031 2.777344 -6.804688 2.957031 -7.050781 C 2.53125 -7.007812 2.132812 -6.9375 1.765625 -6.839844 C 1.402344 -6.742188 1.160156 -6.691406 1.046875 -6.691406 C 0.90625 -6.691406 0.789062 -6.726562 0.695312 -6.800781 C 0.605469 -6.871094 0.558594 -6.988281 0.558594 -7.15625 C 0.558594 -7.300781 0.605469 -7.417969 0.695312 -7.496094 C 0.789062 -7.578125 0.90625 -7.617188 1.046875 -7.617188 C 1.179688 -7.617188 1.40625 -7.570312 1.734375 -7.480469 C 2.0625 -7.390625 2.46875 -7.320312 2.957031 -7.273438 C 2.785156 -7.503906 2.609375 -7.71875 2.421875 -7.925781 C 2.234375 -8.132812 2.089844 -8.289062 1.984375 -8.398438 C 1.863281 -8.527344 1.773438 -8.640625 1.707031 -8.734375 C 1.644531 -8.828125 1.613281 -8.929688 1.613281 -9.035156 C 1.613281 -9.152344 1.667969 -9.253906 1.769531 -9.34375 C 1.875 -9.429688 1.984375 -9.472656 2.101562 -9.472656 C 2.179688 -9.472656 2.253906 -9.449219 2.320312 -9.40625 C 2.386719 -9.363281 2.449219 -9.300781 2.5 -9.210938 C 2.5625 -9.109375 2.640625 -8.875 2.742188 -8.511719 C 2.839844 -8.148438 2.976562 -7.773438 3.152344 -7.382812 C 3.347656 -7.824219 3.488281 -8.210938 3.578125 -8.546875 C 3.667969 -8.875 3.742188 -9.097656 3.800781 -9.210938 C 3.851562 -9.292969 3.90625 -9.359375 3.972656 -9.40625 C 4.042969 -9.449219 4.117188 -9.472656 4.199219 -9.472656 C 4.320312 -9.472656 4.433594 -9.429688 4.535156 -9.347656 C 4.636719 -9.265625 4.6875 -9.164062 4.6875 -9.035156 C 4.6875 -8.859375 4.566406 -8.648438 4.328125 -8.410156 C 4.085938 -8.171875 3.757812 -7.792969 3.347656 -7.273438 C 3.816406 -7.324219 4.222656 -7.394531 4.566406 -7.484375 C 4.914062 -7.574219 5.140625 -7.617188 5.253906 -7.617188 C 5.398438 -7.617188 5.515625 -7.578125 5.605469 -7.5 C 5.695312 -7.421875 5.742188 -7.308594 5.742188 -7.15625 Z "/>
</g>
<g id="glyph-0-3">
<path d="M 6.816406 0 L 0.714844 0 L 0.714844 -0.890625 C 0.832031 -1.023438 0.996094 -1.175781 1.203125 -1.34375 C 1.414062 -1.507812 1.660156 -1.691406 1.945312 -1.886719 C 2.121094 -2.003906 2.328125 -2.128906 2.570312 -2.269531 C 2.816406 -2.410156 3.089844 -2.558594 3.398438 -2.726562 C 3.742188 -2.90625 4.003906 -3.066406 4.1875 -3.207031 C 4.375 -3.34375 4.542969 -3.515625 4.695312 -3.71875 C 4.792969 -3.855469 4.875 -4.023438 4.933594 -4.222656 C 4.996094 -4.425781 5.027344 -4.714844 5.027344 -5.085938 C 5.027344 -5.628906 4.878906 -6.027344 4.589844 -6.28125 C 4.300781 -6.535156 3.925781 -6.660156 3.46875 -6.660156 C 3.1875 -6.660156 2.921875 -6.605469 2.667969 -6.492188 C 2.417969 -6.382812 2.230469 -6.230469 2.101562 -6.035156 C 2.132812 -5.894531 2.171875 -5.730469 2.21875 -5.539062 C 2.261719 -5.347656 2.285156 -5.164062 2.285156 -4.980469 C 2.285156 -4.816406 2.21875 -4.667969 2.078125 -4.539062 C 1.941406 -4.414062 1.742188 -4.347656 1.472656 -4.347656 C 1.253906 -4.347656 1.085938 -4.421875 0.96875 -4.574219 C 0.851562 -4.722656 0.792969 -4.925781 0.792969 -5.175781 C 0.792969 -5.410156 0.859375 -5.644531 0.988281 -5.882812 C 1.121094 -6.117188 1.304688 -6.335938 1.550781 -6.535156 C 1.789062 -6.730469 2.082031 -6.890625 2.433594 -7.011719 C 2.785156 -7.132812 3.167969 -7.195312 3.574219 -7.195312 C 4.464844 -7.195312 5.171875 -6.996094 5.691406 -6.597656 C 6.214844 -6.203125 6.476562 -5.671875 6.476562 -5.007812 C 6.476562 -4.691406 6.429688 -4.402344 6.335938 -4.144531 C 6.246094 -3.882812 6.09375 -3.652344 5.886719 -3.453125 C 5.65625 -3.234375 5.386719 -3.042969 5.078125 -2.886719 C 4.769531 -2.726562 4.300781 -2.507812 3.664062 -2.226562 C 3.289062 -2.054688 2.9375 -1.878906 2.609375 -1.695312 C 2.285156 -1.511719 2.019531 -1.332031 1.808594 -1.160156 L 6.816406 -1.160156 Z "/>
</g>
<g id="glyph-0-4">
<path d="M 7.570312 -4.445312 L 1.003906 -4.445312 L 1.003906 -5.261719 L 7.570312 -5.261719 L 7.570312 -4.445312 M 7.570312 -2.023438 L 1.003906 -2.023438 L 1.003906 -2.839844 L 7.570312 -2.839844 Z "/>
</g>
<g id="glyph-0-5">
<path d="M 5.265625 0 L 0.878906 0 L 0.878906 -0.460938 C 1.007812 -0.472656 1.210938 -0.488281 1.488281 -0.515625 C 1.761719 -0.546875 1.953125 -0.574219 2.058594 -0.605469 C 2.191406 -0.648438 2.296875 -0.71875 2.367188 -0.816406 C 2.4375 -0.914062 2.472656 -1.0625 2.472656 -1.257812 L 2.472656 -5.828125 L 0.851562 -5.828125 L 0.851562 -6.375 L 1.210938 -6.375 C 1.679688 -6.375 2.101562 -6.460938 2.46875 -6.632812 C 2.839844 -6.808594 3.109375 -6.996094 3.269531 -7.195312 L 3.808594 -7.195312 C 3.796875 -6.910156 3.78125 -6.582031 3.769531 -6.203125 C 3.757812 -5.828125 3.75 -5.488281 3.75 -5.1875 L 3.75 -1.328125 C 3.75 -1.175781 3.785156 -1.039062 3.851562 -0.921875 C 3.917969 -0.800781 4.015625 -0.714844 4.140625 -0.65625 C 4.253906 -0.609375 4.4375 -0.566406 4.695312 -0.527344 C 4.949219 -0.488281 5.140625 -0.464844 5.265625 -0.460938 Z "/>
</g>
<g id="glyph-0-6">
<path d="M 7.058594 -0.585938 L 5.734375 -0.585938 L 5.734375 2.375 L 4.484375 2.375 L 4.484375 -0.585938 L 0.320312 -0.585938 L 0.320312 -1.589844 L 4.882812 -7.15625 L 5.734375 -7.15625 L 5.734375 -1.4375 L 7.058594 -1.4375 L 7.058594 -0.585938 M 4.484375 -1.4375 L 4.484375 -5.707031 L 0.960938 -1.4375 Z "/>
</g>
</g>
</defs>
<g fill="rgb(100%, 100%, 100%)" fill-opacity="1">
<use xlink:href="#glyph-0-0" x="30" y="32.226562"/>
<use xlink:href="#glyph-0-1" x="37" y="32.226562"/>
<use xlink:href="#glyph-0-2" x="40" y="32.226562"/>
<use xlink:href="#glyph-0-1" x="46" y="32.226562"/>
<use xlink:href="#glyph-0-3" x="49" y="32.226562"/>
<use xlink:href="#glyph-0-1" x="56" y="32.226562"/>
<use xlink:href="#glyph-0-4" x="59" y="32.226562"/>
<use xlink:href="#glyph-0-1" x="68" y="32.226562"/>
<use xlink:href="#glyph-0-5" x="71" y="32.226562"/>
<use xlink:href="#glyph-0-6" x="77" y="32.226562"/>
</g>
</svg>
